<?xml version="1.0" encoding="utf-8"?>
<!-- Generator: Adobe Illustrator 21.0.0, SVG Export Plug-In . SVG Version: 6.00 Build 0)  -->
<svg version="1.1" id="Layer_1" xmlns="http://www.w3.org/2000/svg" xmlns:xlink="http://www.w3.org/1999/xlink" x="0px" y="0px"
	 viewBox="0 0 100 100" style="enable-background:new 0 0 100 100;" xml:space="preserve">
<style type="text/css">
	.st0{fill:#FF4085;}
</style>
<g>
	<path class="st0" d="M38.6,70.5c-2.8,0-5.5,0-8.4,0c0-9.1,0-18.2,0-27.4c2.7,0,5.5,0,8.4,0C38.6,52.3,38.6,61.4,38.6,70.5z
		 M34.3,39.4c-2.8-0.1-4.9-2.3-4.9-5.1c0.1-2.7,2.3-4.9,4.9-4.9c2.7,0,5,2.4,4.9,5.1C39.3,37.2,37,39.5,34.3,39.4z M70.6,70.5
		c-2.8,0-5.5,0-8.4,0c0-0.4,0-0.7,0-1c0-4.5,0-9,0-13.5c0-0.9-0.2-1.7-0.3-2.5c-0.5-2.2-1.9-3.4-4.1-3.6c-2.2-0.2-4.2,0.9-4.9,3
		c-0.3,0.9-0.5,2-0.5,3c-0.1,4.5,0,9.1,0,13.6c0,0.3,0,0.7,0,1.1c-2.7,0-5.4,0-8,0c0-9.1,0-18.2,0-27.4c2.5-0.1,5.1-0.1,7.9-0.1
		c0,1.2,0,2.2,0,3.7c0.4-0.4,0.5-0.7,0.8-0.9c3.9-4.9,11.9-4.9,15.5,0c1.4,1.7,2,3.8,2,5.8C70.7,58,70.6,64.2,70.6,70.5z"/>
</g>
<g>
	<path class="st0" d="M50,8c23.2,0,42,18.8,42,42S73.2,92,50,92S8,73.2,8,50S26.8,8,50,8 M50,0C22.4,0,0,22.4,0,50s22.4,50,50,50
		s50-22.4,50-50S77.6,0,50,0L50,0z"/>
</g>
</svg>
