<?xml version="1.0" encoding="utf-8"?>
<!-- Generator: Adobe Illustrator 21.0.0, SVG Export Plug-In . SVG Version: 6.00 Build 0)  -->
<svg version="1.1" id="Layer_1" xmlns="http://www.w3.org/2000/svg" xmlns:xlink="http://www.w3.org/1999/xlink" x="0px" y="0px"
	 viewBox="0 0 100 100" style="enable-background:new 0 0 100 100;" xml:space="preserve">
<style type="text/css">
	.st0{fill:#FF4085;}
</style>
<g id="NIBWi1.tif">
	<g>
		<path class="st0" d="M18.8,18.8c0,20.9,0,41.5,0,62.3c20.8,0,41.4,0,62.3,0c0-0.5,0-0.8,0-1.3c0-6.9,0-13.7,0-20.6
			c0-2.4,1.4-4.2,3.5-4.6C87.4,53.9,90,56,90,59c0,6.6,0,13.2,0,19.8c0,2.3,0,4.5,0,6.8c0,2.7-1.9,4.5-4.5,4.5
			c-23.7,0-47.3,0-70.9,0c-2.8,0-4.6-1.9-4.6-4.7c0-23.7,0-47.2,0-70.9c0-2.8,1.9-4.6,4.7-4.6c8.7,0,17.5,0,26.2,0
			c2.7,0,4.6,1.9,4.7,4.4c0,2.5-2,4.5-4.7,4.5c-7,0-13.9,0-20.9,0C19.7,18.8,19.3,18.8,18.8,18.8z"/>
		<path class="st0" d="M81.2,25.1c-0.6,0.5-0.8,0.7-1,1c-9.1,9.1-18,18-27.1,27.1c-1.9,1.9-4.6,1.9-6.4,0.2
			c-1.9-1.8-1.7-4.5,0.2-6.5C55.9,37.7,65,28.7,74,19.6c0.2-0.2,0.5-0.5,0.7-0.8c-0.6,0-0.8-0.1-1.2-0.1c-3.3,0-6.7,0-10,0
			c-2,0-3.6-1.1-4.3-2.9c-0.7-1.7-0.2-3.6,1.1-4.7c0.8-0.8,1.9-1.2,3-1.2c7.4,0,14.8,0,22.3,0c2.6,0,4.5,1.9,4.5,4.5
			c0,7.3,0,14.6,0,22c0,2.6-1.9,4.6-4.5,4.6c-2.6,0-4.4-1.9-4.5-4.5c0-3.4,0-6.9,0-10.2C81.2,25.9,81.2,25.7,81.2,25.1z"/>
	</g>
</g>
</svg>
