<?xml version="1.0" encoding="utf-8"?>
<!-- Generator: Adobe Illustrator 21.0.0, SVG Export Plug-In . SVG Version: 6.00 Build 0)  -->
<svg version="1.1" id="Layer_1" xmlns="http://www.w3.org/2000/svg" xmlns:xlink="http://www.w3.org/1999/xlink" x="0px" y="0px"
	 viewBox="0 0 100 100" style="enable-background:new 0 0 100 100;" xml:space="preserve">
<style type="text/css">
	.st0{fill:#EE4585;}
</style>
<g id="oidU4y.tif">
	<g>
		<path class="st0" d="M3.5,80.3c0-20.2,0-40.5,0-60.7c2.2-5.5,4.4-6.9,10.5-6.9c23.9,0,47.8,0,71.7,0c6.3,0,8.3,1.3,10.7,6.9
			c0,20.2,0,40.5,0,60.7c-1.7,5.2-5.4,7-10.7,7c-23.9-0.1-47.8-0.1-71.7-0.1C7.9,87.2,5.8,85.8,3.5,80.3z M11.4,26.3
			c-0.1,0.8-0.2,1.1-0.2,1.5c0,16.6,0,33.2,0,49.7c0,2,1,2,2.4,2c24.2,0,48.4,0,72.7,0c2,0,2.5-0.6,2.5-2.6c-0.1-16.2,0-32.3,0-48.5
			c0-0.6-0.1-1.3-0.1-2.2c-0.5,0.4-0.8,0.6-1.1,0.8C76.1,37.4,64.7,47.6,53.2,57.8c-2.3,2.1-4,2.1-6.3,0.1c-1.3-1.1-2.6-2.3-3.9-3.4
			C32.6,45.1,22.2,35.8,11.4,26.3z M16.8,20.5C28.1,30.6,39,40.4,50,50.3c11.1-9.9,22.1-19.7,33.4-29.8C61,20.5,39.2,20.5,16.8,20.5
			z"/>
	</g>
</g>
</svg>
